<svg viewBox="0 0 12 12" width="60px" height="60px" xmlns="http://www.w3.org/2000/svg"><path fill-rule="evenodd" d="M 2,0 9,0 9,4 11,4 11,7 10,7 10,8 11,8 11,11 8,11 8,10 6,10 6,9 5,9 5,10 3,10 3,11 0,11 0,8 1,8 1,7 0,7 0,4 2,4z M 5,3 6,3 6,6 5,6z" fill="#F0B726"/><path fill-rule="evenodd" d="M 3,1 4,1 4,2 3,2z" fill="#ffffff"/><path fill-rule="evenodd" d="M 5,1 6,1 6,2 5,2z" fill="#ffffff"/><path fill-rule="evenodd" d="M 7,1 8,1 8,2 7,2z" fill="#ffffff"/><path fill-rule="evenodd" d="M 3,3 4,3 4,4 3,4z" fill="#ffffff"/><path fill-rule="evenodd" d="M 7,3 8,3 8,4 7,4z" fill="#ffffff"/><path fill-rule="evenodd" d="M 1,5 3,5 3,6 1,6z" fill="#ffffff"/><path fill-rule="evenodd" d="M 8,5 10,5 10,6 8,6z" fill="#ffffff"/><path fill-rule="evenodd" d="M 3,6 4,6 4,7 3,7z" fill="#ffffff"/><path fill-rule="evenodd" d="M 7,6 8,6 8,7 7,7z" fill="#ffffff"/><path fill-rule="evenodd" d="M 2,7 3,7 3,8 4,8 4,9 2,9z" fill="#ffffff"/><path fill-rule="evenodd" d="M 4,7 5,7 5,8 4,8z" fill="#ffffff"/><path fill-rule="evenodd" d="M 6,7 7,7 7,8 6,8z" fill="#ffffff"/><path fill-rule="evenodd" d="M 8,7 9,7 9,9 7,9 7,8 8,8z" fill="#ffffff"/><path fill-rule="evenodd" d="M 1,9 2,9 2,10 1,10z" fill="#ffffff"/><path fill-rule="evenodd" d="M 9,9 10,9 10,10 9,10z" fill="#ffffff"/></svg>